<svg xmlns="http://www.w3.org/2000/svg" viewBox="0 0 32 40" x="0px" y="0px"><path d="M16,16c0,8.28,6.72,15,15,15,0-8.28-6.72-15-15-15Z"/><path d="M1,31c8.28,0,15-6.72,15-15-8.28,0-15,6.72-15,15Z"/><path d="M31,1c-8.28,0-15,6.72-15,15,8.28,0,15-6.72,15-15Z"/><path d="M1,1c0,8.28,6.72,15,15,15C16,7.72,9.28,1,1,1Z"/><text x="0" y="47" fill="#000000" font-size="5px" font-weight="bold" font-family="'Helvetica Neue', Helvetica, Arial-Unicode, Arial, Sans-serif">Created by papergarden</text><text x="0" y="52" fill="#000000" font-size="5px" font-weight="bold" font-family="'Helvetica Neue', Helvetica, Arial-Unicode, Arial, Sans-serif">from the Noun Project</text></svg>